<svg xmlns="http://www.w3.org/2000/svg" width="529" height="316" viewBox="0 0 529 316" fill="none"><g clip-path="url(#clip0_132_297)"><path d="M138.71 87.5096C132.659 91.2659 129.033 92.4398 122.968 92.4398C109.521 92.4398 101.447 85.6315 101.447 74.1278C101.447 62.6241 110.59 54.1724 124.311 54.1724C129.828 54.1724 132.515 54.8767 138.697 57.694V45.3686C138.697 38.6777 135.867 35.6257 129.815 35.6257C125.381 35.6257 122.016 37.7386 121.077 40.7906C120.803 41.847 120.398 43.0209 120.398 44.4295C120.268 45.3686 120.268 46.425 120.268 47.5989H105.204C106.143 36.5647 112.873 32.5737 130.089 32.5737C147.305 32.5737 154.701 38.5603 154.701 51.9421V91.0312H138.697V87.5096H138.71ZM136.689 20.1179L133.454 23.0525L118.52 12.3705L123.763 7.79248L136.676 20.1179H136.689ZM129.959 58.9721C122.433 58.9721 118.533 64.1371 118.533 73.6452C118.533 81.51 122.707 86.4401 129.293 86.4401C133.063 86.4401 135.75 85.2663 138.71 82.4491V61.2024C134.68 59.3243 132.932 58.9721 129.972 58.9721H129.959Z" fill="#7BD7D6"></path><path d="M138.71 87.5096C132.659 91.2659 129.033 92.4398 122.968 92.4398C109.521 92.4398 101.447 85.6315 101.447 74.1278C101.447 62.6241 110.59 54.1724 124.311 54.1724C129.828 54.1724 132.515 54.8767 138.697 57.694V45.3686C138.697 38.6777 135.867 35.6257 129.815 35.6257C125.381 35.6257 122.016 37.7386 121.077 40.7906C120.803 41.847 120.398 43.0209 120.398 44.4295C120.268 45.3686 120.268 46.425 120.268 47.5989H105.204C106.143 36.5647 112.873 32.5737 130.089 32.5737C147.305 32.5737 154.701 38.5603 154.701 51.9421V91.0312H138.697V87.5096H138.71ZM136.689 20.1179L133.454 23.0525L118.52 12.3705L123.763 7.79248L136.676 20.1179H136.689ZM129.959 58.9721C122.433 58.9721 118.533 64.1371 118.533 73.6452C118.533 81.51 122.707 86.4401 129.293 86.4401C133.063 86.4401 135.75 85.2663 138.71 82.4491V61.2024C134.68 59.3243 132.932 58.9721 129.972 58.9721H129.959Z" fill="black" fill-opacity="0.16"></path><path d="M228.001 50.6512V91.0315H211.868V51.0033C211.868 41.6125 207.837 37.8562 200.038 37.8562C195.055 37.8562 191.704 39.2649 187.126 43.2559V91.0315H171.122V33.8521H187.126V38.7823C193.308 33.9695 198.955 32.2087 207.029 32.2087C220.345 32.2087 228.014 36.7867 228.014 50.6381L228.001 50.6512Z" fill="#7BD7D6"></path><path d="M228.001 50.6512V91.0315H211.868V51.0033C211.868 41.6125 207.837 37.8562 200.038 37.8562C195.055 37.8562 191.704 39.2649 187.126 43.2559V91.0315H171.122V33.8521H187.126V38.7823C193.308 33.9695 198.955 32.2087 207.029 32.2087C220.345 32.2087 228.014 36.7867 228.014 50.6381L228.001 50.6512Z" fill="black" fill-opacity="0.16"></path><path d="M301.158 50.651V91.0313H285.024V51.0032C285.024 41.6124 280.994 37.8561 273.194 37.8561C268.212 37.8561 264.86 39.2647 260.282 43.2558V91.0313H244.278V0.280029H260.282V38.7822C266.464 33.9694 272.112 32.2086 280.185 32.2086C293.502 32.2086 301.171 36.7866 301.171 50.638L301.158 50.651Z" fill="#7BD7D6"></path><path d="M301.158 50.651V91.0313H285.024V51.0032C285.024 41.6124 280.994 37.8561 273.194 37.8561C268.212 37.8561 264.86 39.2647 260.282 43.2558V91.0313H244.278V0.280029H260.282V38.7822C266.464 33.9694 272.112 32.2086 280.185 32.2086C293.502 32.2086 301.171 36.7866 301.171 50.638L301.158 50.651Z" fill="black" fill-opacity="0.16"></path><path d="M12.1947 30.9569C12.1947 26.0137 11.5164 22.3487 10.16 19.9749C8.80355 17.6011 6.09066 16.4142 2.00829 16.4142H0.560547V12.0449H18.0248C21.5202 12.0449 24.1809 12.6318 26.033 13.7926C27.872 14.9534 29.1893 16.8707 29.9589 19.5445C30.7284 22.2183 31.1197 26.0137 31.1197 30.9699V54.9816H70.4044V12.0449H89.3163V89.1666C89.3163 94.1098 89.9945 97.7748 91.351 100.149C92.7074 102.522 95.4203 103.709 99.5027 103.709H100.963V108.079H83.4992C80.0038 108.079 77.3431 107.518 75.491 106.409C73.652 105.3 72.3347 103.409 71.5652 100.735C70.7826 98.0748 70.4044 94.2141 70.4044 89.1666V61.516H31.1197V108.079H12.2077V30.9569H12.1947Z" fill="#7BD7D6"></path><path d="M12.1947 30.9569C12.1947 26.0137 11.5164 22.3487 10.16 19.9749C8.80355 17.6011 6.09066 16.4142 2.00829 16.4142H0.560547V12.0449H18.0248C21.5202 12.0449 24.1809 12.6318 26.033 13.7926C27.872 14.9534 29.1893 16.8707 29.9589 19.5445C30.7284 22.2183 31.1197 26.0137 31.1197 30.9699V54.9816H70.4044V12.0449H89.3163V89.1666C89.3163 94.1098 89.9945 97.7748 91.351 100.149C92.7074 102.522 95.4203 103.709 99.5027 103.709H100.963V108.079H83.4992C80.0038 108.079 77.3431 107.518 75.491 106.409C73.652 105.3 72.3347 103.409 71.5652 100.735C70.7826 98.0748 70.4044 94.2141 70.4044 89.1666V61.516H31.1197V108.079H12.2077V30.9569H12.1947Z" fill="black" fill-opacity="0.16"></path><path d="M277.615 117.261V121.826H260.659V167.489C260.529 167.515 260.398 167.528 260.268 167.554C254.647 168.415 249.534 169.236 244.656 170.058V121.826H234.587V117.261H244.656V97.5535H260.659V117.261H277.615Z" fill="#7BD7D6"></path><path d="M277.615 117.261V121.826H260.659V167.489C260.529 167.515 260.398 167.528 260.268 167.554C254.647 168.415 249.534 169.236 244.656 170.058V121.826H234.587V117.261H244.656V97.5535H260.659V117.261H277.615Z" fill="black" fill-opacity="0.16"></path><path d="M338.277 97.397L353.055 108.092L356.446 105.144L343.377 92.832L338.277 97.397Z" fill="#7BD7D6"></path><path d="M338.277 97.397L353.055 108.092L356.446 105.144L343.377 92.832L338.277 97.397Z" fill="black" fill-opacity="0.16"></path><path d="M354.932 117.261V157.445H354.815C349.65 157.693 344.276 158.006 338.824 158.411V117.261H354.932Z" fill="#7BD7D6"></path><path d="M354.932 117.261V157.445H354.815C349.65 157.693 344.276 158.006 338.824 158.411V117.261H354.932Z" fill="black" fill-opacity="0.16"></path><path d="M428.247 134.02V158.619C423.186 158.136 417.813 157.745 412.283 157.432C412.23 157.432 412.191 157.432 412.139 157.419V134.373C412.139 125.008 408.083 121.239 400.296 121.239C395.288 121.239 391.962 122.647 387.358 126.612V156.702H384.71C380.406 156.689 375.919 156.741 371.354 156.845V117.261H387.358V122.178C393.566 117.365 399.201 115.617 407.248 115.617C420.578 115.617 428.247 120.169 428.247 134.02Z" fill="#7BD7D6"></path><path d="M428.247 134.02V158.619C423.186 158.136 417.813 157.745 412.283 157.432C412.23 157.432 412.191 157.432 412.139 157.419V134.373C412.139 125.008 408.083 121.239 400.296 121.239C395.288 121.239 391.962 122.647 387.358 126.612V156.702H384.71C380.406 156.689 375.919 156.741 371.354 156.845V117.261H387.358V122.178C393.566 117.365 399.201 115.617 407.248 115.617C420.578 115.617 428.247 120.169 428.247 134.02Z" fill="black" fill-opacity="0.16"></path><path d="M506.762 142.655V175.419C500.802 173.214 494.685 171.232 488.555 169.497C488.32 169.432 488.085 169.367 487.837 169.302V143.412C487.837 136.408 486.611 131.334 484.146 128.113C481.668 124.93 478.525 123.313 474.742 123.313C472.095 123.313 469.343 124.187 466.434 125.947C465.26 126.613 464.165 127.447 463.095 128.426V163.498C457.2 162.35 450.952 161.332 444.535 160.472C444.418 160.459 444.301 160.446 444.183 160.419V108.77C444.183 103.814 443.505 100.162 442.136 97.8013C440.792 95.3884 438.079 94.2145 433.997 94.2145H432.536V89.8452H450C453.496 89.8452 456.183 90.4321 457.996 91.5799C459.835 92.7537 461.165 94.6971 461.934 97.3578C462.704 100.032 463.095 103.814 463.095 108.77V121.578C463.969 120.926 465.456 119.987 467.621 118.787C471.482 116.987 475.329 116.035 479.112 116.035C486.976 116.035 493.537 118.044 498.806 122.087C504.128 126.104 506.762 132.991 506.762 142.655Z" fill="#7BD7D6"></path><path d="M506.762 142.655V175.419C500.802 173.214 494.685 171.232 488.555 169.497C488.32 169.432 488.085 169.367 487.837 169.302V143.412C487.837 136.408 486.611 131.334 484.146 128.113C481.668 124.93 478.525 123.313 474.742 123.313C472.095 123.313 469.343 124.187 466.434 125.947C465.26 126.613 464.165 127.447 463.095 128.426V163.498C457.2 162.35 450.952 161.332 444.535 160.472C444.418 160.459 444.301 160.446 444.183 160.419V108.77C444.183 103.814 443.505 100.162 442.136 97.8013C440.792 95.3884 438.079 94.2145 433.997 94.2145H432.536V89.8452H450C453.496 89.8452 456.183 90.4321 457.996 91.5799C459.835 92.7537 461.165 94.6971 461.934 97.3578C462.704 100.032 463.095 103.814 463.095 108.77V121.578C463.969 120.926 465.456 119.987 467.621 118.787C471.482 116.987 475.329 116.035 479.112 116.035C486.976 116.035 493.537 118.044 498.806 122.087C504.128 126.104 506.762 132.991 506.762 142.655Z" fill="black" fill-opacity="0.16"></path><path d="M326.982 115.839V129.912C324.974 129.69 323.878 129.56 322.809 129.56C313.405 129.56 307.875 135.077 307.875 144.116V160.249H307.836V161.228C307.757 161.241 307.666 161.241 307.588 161.254C301.927 161.88 296.789 162.48 291.858 163.119V117.261H307.875L307.353 129.103C309.075 125.008 309.753 123.117 311.083 121.239C313.927 117.626 317.97 115.617 323.748 115.617C324.53 115.617 325.639 115.839 326.982 115.839Z" fill="#7BD7D6"></path><path d="M326.982 115.839V129.912C324.974 129.69 323.878 129.56 322.809 129.56C313.405 129.56 307.875 135.077 307.875 144.116V160.249H307.836V161.228C307.757 161.241 307.666 161.241 307.588 161.254C301.927 161.88 296.789 162.48 291.858 163.119V117.261H307.875L307.353 129.103C309.075 125.008 309.753 123.117 311.083 121.239C313.927 117.626 317.97 115.617 323.748 115.617C324.53 115.617 325.639 115.839 326.982 115.839Z" fill="black" fill-opacity="0.16"></path><path d="M528.987 209.642V242.771H526.039C526.039 242.771 512.475 146.163 260.659 179.253C255.311 179.957 249.977 180.74 244.655 181.509C216.679 185.605 189.198 190.248 163.425 194.617C157.947 195.543 152.547 196.456 147.239 197.356C76.1823 209.29 31.4588 216.268 10.2252 200.095C6.05153 196.913 -0.665479 190.378 0.0518715 176.383C-0.0655131 178.601 7.52536 193.874 12.1947 198.099C28.6546 213.007 80.1994 203.969 147.239 190.874C152.534 189.83 157.934 188.774 163.425 187.691C188.95 182.696 216.352 177.348 244.655 172.666C249.964 171.779 255.298 170.931 260.659 170.11C270.975 168.519 281.397 167.032 291.857 165.714C297.178 165.036 302.526 164.41 307.873 163.823C318.177 162.688 328.52 161.736 338.824 160.993C344.197 160.602 349.571 160.276 354.931 160.028C360.422 159.754 365.9 159.545 371.352 159.428C376.713 159.31 382.047 159.258 387.356 159.284C395.69 159.323 403.959 159.558 412.137 160.015C417.55 160.315 422.923 160.706 428.245 161.215C433.605 161.71 438.927 162.31 444.183 163.028C450.574 163.888 456.873 164.906 463.095 166.119C471.507 167.736 479.776 169.679 487.837 171.975C494.28 173.801 505.223 177.583 511.118 179.996C530.082 187.757 528.987 206.564 528.987 209.629V209.642Z" fill="#7BD7D6"></path><path d="M528.987 209.642V242.771H526.039C526.039 242.771 512.475 146.163 260.659 179.253C255.311 179.957 249.977 180.74 244.655 181.509C216.679 185.605 189.198 190.248 163.425 194.617C157.947 195.543 152.547 196.456 147.239 197.356C76.1823 209.29 31.4588 216.268 10.2252 200.095C6.05153 196.913 -0.665479 190.378 0.0518715 176.383C-0.0655131 178.601 7.52536 193.874 12.1947 198.099C28.6546 213.007 80.1994 203.969 147.239 190.874C152.534 189.83 157.934 188.774 163.425 187.691C188.95 182.696 216.352 177.348 244.655 172.666C249.964 171.779 255.298 170.931 260.659 170.11C270.975 168.519 281.397 167.032 291.857 165.714C297.178 165.036 302.526 164.41 307.873 163.823C318.177 162.688 328.52 161.736 338.824 160.993C344.197 160.602 349.571 160.276 354.931 160.028C360.422 159.754 365.9 159.545 371.352 159.428C376.713 159.31 382.047 159.258 387.356 159.284C395.69 159.323 403.959 159.558 412.137 160.015C417.55 160.315 422.923 160.706 428.245 161.215C433.605 161.71 438.927 162.31 444.183 163.028C450.574 163.888 456.873 164.906 463.095 166.119C471.507 167.736 479.776 169.679 487.837 171.975C494.28 173.801 505.223 177.583 511.118 179.996C530.082 187.757 528.987 206.564 528.987 209.629V209.642Z" fill="black" fill-opacity="0.16"></path><path d="M181.827 289.398V248.444H198.052V289.046C198.052 298.567 202.147 302.376 210.064 302.376C215.112 302.376 218.66 301.071 223.159 296.898V248.444H239.528V306.419H223.159V301.424C216.886 306.302 211.16 307.854 202.969 307.854C189.47 307.854 181.827 303.563 181.827 289.398Z" fill="#7BD7D6"></path><path d="M181.827 289.398V248.444H198.052V289.046C198.052 298.567 202.147 302.376 210.064 302.376C215.112 302.376 218.66 301.071 223.159 296.898V248.444H239.528V306.419H223.159V301.424C216.886 306.302 211.16 307.854 202.969 307.854C189.47 307.854 181.827 303.563 181.827 289.398Z" fill="black" fill-opacity="0.16"></path><path d="M235.38 248.848C239.932 248.848 243.336 247.622 245.605 245.157C247.875 242.692 249.009 239.797 249.009 236.471H256.783C256.783 246.07 250.601 251.196 238.236 251.835L235.367 248.861L235.38 248.848ZM211.485 238.662C211.89 237.514 212.451 236.262 213.168 234.906C213.533 234.188 213.859 233.497 214.146 232.819C214.433 232.141 214.577 231.489 214.577 230.849C214.577 229.741 214.264 228.867 213.651 228.228C213.038 227.589 212.138 227.276 210.977 227.276C209.529 227.276 208.381 227.719 207.547 228.58C206.712 229.454 206.112 231.006 205.747 233.223L201.169 233.106C201.169 229.936 202.056 227.432 203.842 225.606C205.616 223.78 208.003 222.867 210.977 222.867C213.377 222.867 215.49 223.441 217.342 224.589C219.194 225.737 220.12 227.432 220.12 229.65C220.12 230.68 219.898 231.619 219.468 232.454C219.024 233.288 218.372 234.267 217.511 235.375C216.494 236.64 215.698 237.814 215.111 238.884C214.524 239.953 214.198 241.245 214.133 242.757H210.755C210.833 241.166 211.068 239.797 211.459 238.649L211.485 238.662Z" fill="#7BD7D6"></path><path d="M235.38 248.848C239.932 248.848 243.336 247.622 245.605 245.157C247.875 242.692 249.009 239.797 249.009 236.471H256.783C256.783 246.07 250.601 251.196 238.236 251.835L235.367 248.861L235.38 248.848ZM211.485 238.662C211.89 237.514 212.451 236.262 213.168 234.906C213.533 234.188 213.859 233.497 214.146 232.819C214.433 232.141 214.577 231.489 214.577 230.849C214.577 229.741 214.264 228.867 213.651 228.228C213.038 227.589 212.138 227.276 210.977 227.276C209.529 227.276 208.381 227.719 207.547 228.58C206.712 229.454 206.112 231.006 205.747 233.223L201.169 233.106C201.169 229.936 202.056 227.432 203.842 225.606C205.616 223.78 208.003 222.867 210.977 222.867C213.377 222.867 215.49 223.441 217.342 224.589C219.194 225.737 220.12 227.432 220.12 229.65C220.12 230.68 219.898 231.619 219.468 232.454C219.024 233.288 218.372 234.267 217.511 235.375C216.494 236.64 215.698 237.814 215.111 238.884C214.524 239.953 214.198 241.245 214.133 242.757H210.755C210.833 241.166 211.068 239.797 211.459 238.649L211.485 238.662Z" fill="black" fill-opacity="0.16"></path><path d="M283.705 243.71H273.271V248.927H283.705V243.71Z" fill="#7BD7D6"></path><path d="M283.705 243.71H273.271V248.927H283.705V243.71Z" fill="black" fill-opacity="0.16"></path><path d="M315.046 243.71H297.139V248.927H315.046V243.71Z" fill="#7BD7D6"></path><path d="M315.046 243.71H297.139V248.927H315.046V243.71Z" fill="black" fill-opacity="0.16"></path><path d="M368.952 300.85C364.257 305.65 357.005 308.115 346.949 308.115C325.611 308.115 315.281 298.281 315.281 277.66C315.281 258.683 326.015 248.366 345.736 248.366C363.578 248.366 374.313 258.905 374.313 276.721V277.778H331.65C331.78 296.52 336.476 304.372 347.353 304.372C355.544 304.372 359.561 299.807 360.37 289.373H373.113C372.982 295.229 372.043 297.576 368.952 300.85ZM343.597 231.15L330.306 240.175L325.076 236.667L343.597 224.368L362.248 236.667L357.018 240.175L343.597 231.15ZM358.361 271.569C358.361 257.627 354.736 251.77 346.688 251.77C343.062 251.77 339.984 252.944 337.571 255.279C333.945 258.918 332.198 263.717 331.937 273.2H358.374V271.556L358.361 271.569Z" fill="#7BD7D6"></path><path d="M368.952 300.85C364.257 305.65 357.005 308.115 346.949 308.115C325.611 308.115 315.281 298.281 315.281 277.66C315.281 258.683 326.015 248.366 345.736 248.366C363.578 248.366 374.313 258.905 374.313 276.721V277.778H331.65C331.78 296.52 336.476 304.372 347.353 304.372C355.544 304.372 359.561 299.807 360.37 289.373H373.113C372.982 295.229 372.043 297.576 368.952 300.85ZM343.597 231.15L330.306 240.175L325.076 236.667L343.597 224.368L362.248 236.667L357.018 240.175L343.597 231.15ZM358.361 271.569C358.361 257.627 354.736 251.77 346.688 251.77C343.062 251.77 339.984 252.944 337.571 255.279C333.945 258.918 332.198 263.717 331.937 273.2H358.374V271.556L358.361 271.569Z" fill="black" fill-opacity="0.16"></path><path d="M355.649 220.716L361.01 205.482H373.753L361.01 220.716H355.649Z" fill="#7BD7D6"></path><path d="M355.649 220.716L361.01 205.482H373.753L361.01 220.716H355.649Z" fill="black" fill-opacity="0.16"></path><path d="M173.442 304.581V307.854H158.482C155.482 307.854 153.187 307.437 151.609 306.602C150.03 305.768 148.909 304.346 148.257 302.363C147.578 300.355 147.239 297.485 147.239 293.703V200.017C147.383 199.991 147.526 199.965 147.67 199.939L163.425 197.278V236.015H163.464V293.703C163.464 297.407 164.051 300.146 165.199 301.92C166.373 303.694 168.695 304.581 172.19 304.581H173.442Z" fill="#7BD7D6"></path><path d="M173.442 304.581V307.854H158.482C155.482 307.854 153.187 307.437 151.609 306.602C150.03 305.768 148.909 304.346 148.257 302.363C147.578 300.355 147.239 297.485 147.239 293.703V200.017C147.383 199.991 147.526 199.965 147.67 199.939L163.425 197.278V236.015H163.464V293.703C163.464 297.407 164.051 300.146 165.199 301.92C166.373 303.694 168.695 304.581 172.19 304.581H173.442Z" fill="black" fill-opacity="0.16"></path><path d="M308.173 304.58C304.678 304.58 302.356 303.693 301.195 301.906C300.034 300.133 299.447 297.394 299.447 293.69V237.019H299.408V223.937C297.582 224.237 291.857 223.937 291.857 223.937C291.857 223.937 287.67 227.915 283.235 232.076V293.69C283.235 297.459 283.561 300.354 284.227 302.35C284.892 304.345 286.013 305.767 287.592 306.589C289.17 307.424 291.452 307.841 294.452 307.841H309.412V304.58H308.16H308.173Z" fill="#7BD7D6"></path><path d="M308.173 304.58C304.678 304.58 302.356 303.693 301.195 301.906C300.034 300.133 299.447 297.394 299.447 293.69V237.019H299.408V223.937C297.582 224.237 291.857 223.937 291.857 223.937C291.857 223.937 287.67 227.915 283.235 232.076V293.69C283.235 297.459 283.561 300.354 284.227 302.35C284.892 304.345 286.013 305.767 287.592 306.589C289.17 307.424 291.452 307.841 294.452 307.841H309.412V304.58H308.16H308.173Z" fill="black" fill-opacity="0.16"></path><path d="M138.305 158.136C140.963 158.136 143.118 155.982 143.118 153.324C143.118 150.665 140.963 148.511 138.305 148.511C135.647 148.511 133.492 150.665 133.492 153.324C133.492 155.982 135.647 158.136 138.305 158.136Z" fill="#7BD7D6"></path><path d="M138.305 158.136C140.963 158.136 143.118 155.982 143.118 153.324C143.118 150.665 140.963 148.511 138.305 148.511C135.647 148.511 133.492 150.665 133.492 153.324C133.492 155.982 135.647 158.136 138.305 158.136Z" fill="black" fill-opacity="0.16"></path><path d="M18.4165 204.765C-7.70808 190.953 -6.99072 155.698 26.9856 156.155C38.4371 156.285 49.4452 158.855 60.5054 161.215C71.4482 163.641 82.3128 166.172 93.2687 168.324C136.962 177.336 182.716 178.275 225.939 166.159C182.872 179.149 136.792 179.11 92.7862 170.919C76.248 168.076 59.9446 164.085 43.4064 161.476C33.1418 160.12 21.1424 158.32 12.0517 163.837C2.46525 169.732 3.06522 181.653 9.11705 190.131C12.0386 194.383 16.0819 197.918 20.6859 200.07L18.4426 204.778L18.4165 204.765Z" fill="#7BD7D6"></path><path d="M18.4165 204.765C-7.70808 190.953 -6.99072 155.698 26.9856 156.155C38.4371 156.285 49.4452 158.855 60.5054 161.215C71.4482 163.641 82.3128 166.172 93.2687 168.324C136.962 177.336 182.716 178.275 225.939 166.159C182.872 179.149 136.792 179.11 92.7862 170.919C76.248 168.076 59.9446 164.085 43.4064 161.476C33.1418 160.12 21.1424 158.32 12.0517 163.837C2.46525 169.732 3.06522 181.653 9.11705 190.131C12.0386 194.383 16.0819 197.918 20.6859 200.07L18.4426 204.778L18.4165 204.765Z" fill="black" fill-opacity="0.16"></path><path d="M23.4508 160.158C-3.13029 163.458 0.560799 213.099 84.8559 202.078C84.8559 202.078 23.2291 219.907 8.86902 196.678C-12.8993 161.489 23.4508 160.158 23.4508 160.158Z" fill="#7BD7D6"></path><path d="M23.4508 160.158C-3.13029 163.458 0.560799 213.099 84.8559 202.078C84.8559 202.078 23.2291 219.907 8.86902 196.678C-12.8993 161.489 23.4508 160.158 23.4508 160.158Z" fill="black" fill-opacity="0.16"></path><path d="M91.6783 168.101C126.463 174.27 136.519 160.158 136.519 160.158C136.519 160.158 139.832 174.675 171.865 174.831C171.865 174.831 152.288 176.853 129.541 175.288C115.494 174.322 91.6653 168.101 91.6653 168.101H91.6783Z" fill="#7BD7D6"></path><path d="M91.6783 168.101C126.463 174.27 136.519 160.158 136.519 160.158C136.519 160.158 139.832 174.675 171.865 174.831C171.865 174.831 152.288 176.853 129.541 175.288C115.494 174.322 91.6653 168.101 91.6653 168.101H91.6783Z" fill="black" fill-opacity="0.16"></path><path d="M402.277 307.88C401.299 307.475 400.555 306.967 400.021 306.38H399.799L398.247 308.114H396.042V287.285C396.042 285.968 395.834 285.003 395.429 284.377C395.012 283.751 394.19 283.438 392.951 283.438H392.064V282.668H396.042C397.125 282.668 397.947 282.785 398.495 283.033C399.042 283.281 399.434 283.724 399.668 284.364C399.903 285.003 400.021 285.981 400.021 287.298V290.768C400.881 290.402 401.729 290.128 402.577 289.92C403.425 289.711 404.416 289.607 405.538 289.607C408.277 289.607 410.363 290.494 411.785 292.267C413.207 294.041 413.924 296.311 413.924 299.05C413.924 301.789 413.233 304.032 411.85 305.819C410.468 307.606 408.511 308.493 405.981 308.493C404.481 308.493 403.242 308.284 402.277 307.88ZM408.459 304.775C409.307 303.328 409.737 301.41 409.737 299.05C409.737 296.689 409.294 294.746 408.394 293.298C407.494 291.863 406.098 291.133 404.22 291.133C403.607 291.133 402.968 291.237 402.316 291.446C401.664 291.654 400.907 291.928 400.021 292.294V304.632C400.555 305.323 401.181 305.884 401.899 306.314C402.616 306.745 403.542 306.954 404.664 306.954C406.346 306.954 407.611 306.223 408.459 304.775Z" fill="#7BD7D6"></path><path d="M402.277 307.88C401.299 307.475 400.555 306.967 400.021 306.38H399.799L398.247 308.114H396.042V287.285C396.042 285.968 395.834 285.003 395.429 284.377C395.012 283.751 394.19 283.438 392.951 283.438H392.064V282.668H396.042C397.125 282.668 397.947 282.785 398.495 283.033C399.042 283.281 399.434 283.724 399.668 284.364C399.903 285.003 400.021 285.981 400.021 287.298V290.768C400.881 290.402 401.729 290.128 402.577 289.92C403.425 289.711 404.416 289.607 405.538 289.607C408.277 289.607 410.363 290.494 411.785 292.267C413.207 294.041 413.924 296.311 413.924 299.05C413.924 301.789 413.233 304.032 411.85 305.819C410.468 307.606 408.511 308.493 405.981 308.493C404.481 308.493 403.242 308.284 402.277 307.88ZM408.459 304.775C409.307 303.328 409.737 301.41 409.737 299.05C409.737 296.689 409.294 294.746 408.394 293.298C407.494 291.863 406.098 291.133 404.22 291.133C403.607 291.133 402.968 291.237 402.316 291.446C401.664 291.654 400.907 291.928 400.021 292.294V304.632C400.555 305.323 401.181 305.884 401.899 306.314C402.616 306.745 403.542 306.954 404.664 306.954C406.346 306.954 407.611 306.223 408.459 304.775Z" fill="black" fill-opacity="0.16"></path><path d="M416.637 314.661C418.085 314.661 419.272 314.374 420.198 313.787C421.124 313.2 421.932 312.144 422.611 310.605L423.498 308.479L416.428 293.441C415.607 291.589 413.989 290.558 411.563 290.35V289.58H415.32C417.876 289.58 419.65 290.61 420.615 292.671L425.65 303.353L431.219 289.971H433.423L424.815 310.605C423.954 312.64 423.015 314.009 421.985 314.726C420.954 315.444 419.611 315.809 417.967 315.809H416.637V314.648V314.661Z" fill="#7BD7D6"></path><path d="M416.637 314.661C418.085 314.661 419.272 314.374 420.198 313.787C421.124 313.2 421.932 312.144 422.611 310.605L423.498 308.479L416.428 293.441C415.607 291.589 413.989 290.558 411.563 290.35V289.58H415.32C417.876 289.58 419.65 290.61 420.615 292.671L425.65 303.353L431.219 289.971H433.423L424.815 310.605C423.954 312.64 423.015 314.009 421.985 314.726C420.954 315.444 419.611 315.809 417.967 315.809H416.637V314.648V314.661Z" fill="black" fill-opacity="0.16"></path><path d="M462.391 307.28C461.008 306.601 459.9 305.271 459.078 303.289L457.969 300.784H445.605L442.07 308.114H440.088L452.452 282.668H453.783L463.5 303.302C464.23 304.788 464.921 305.819 465.573 306.367C466.225 306.914 467.152 307.254 468.351 307.345V308.114C467.817 308.245 467.23 308.31 466.591 308.31C465.182 308.31 463.773 307.971 462.391 307.293V307.28ZM446.27 299.232H457.096L451.8 288.055L446.283 299.232H446.27Z" fill="#7BD7D6"></path><path d="M462.391 307.28C461.008 306.601 459.9 305.271 459.078 303.289L457.969 300.784H445.605L442.07 308.114H440.088L452.452 282.668H453.783L463.5 303.302C464.23 304.788 464.921 305.819 465.573 306.367C466.225 306.914 467.152 307.254 468.351 307.345V308.114C467.817 308.245 467.23 308.31 466.591 308.31C465.182 308.31 463.773 307.971 462.391 307.293V307.28ZM446.27 299.232H457.096L451.8 288.055L446.283 299.232H446.27Z" fill="black" fill-opacity="0.16"></path><path d="M467.7 294.615C467.7 293.311 467.491 292.333 467.087 291.706C466.669 291.08 465.848 290.767 464.609 290.767H463.722V289.998H467.7C468.782 289.998 469.617 290.128 470.191 290.389C470.765 290.65 471.182 291.028 471.443 291.55H471.665C472.278 291.015 473.086 290.559 474.078 290.18C475.069 289.802 476.177 289.62 477.417 289.62C479.621 289.62 481.434 290.128 482.829 291.159C484.225 292.189 484.929 293.989 484.929 296.558V308.127H480.951V296.558C480.951 294.758 480.482 293.441 479.556 292.606C478.629 291.772 477.469 291.354 476.086 291.354C474.521 291.354 473.047 292.033 471.665 293.402V308.127H467.687V294.628L467.7 294.615Z" fill="#7BD7D6"></path><path d="M467.7 294.615C467.7 293.311 467.491 292.333 467.087 291.706C466.669 291.08 465.848 290.767 464.609 290.767H463.722V289.998H467.7C468.782 289.998 469.617 290.128 470.191 290.389C470.765 290.65 471.182 291.028 471.443 291.55H471.665C472.278 291.015 473.086 290.559 474.078 290.18C475.069 289.802 476.177 289.62 477.417 289.62C479.621 289.62 481.434 290.128 482.829 291.159C484.225 292.189 484.929 293.989 484.929 296.558V308.127H480.951V296.558C480.951 294.758 480.482 293.441 479.556 292.606C478.629 291.772 477.469 291.354 476.086 291.354C474.521 291.354 473.047 292.033 471.665 293.402V308.127H467.687V294.628L467.7 294.615Z" fill="black" fill-opacity="0.16"></path><path d="M488.411 294.615C488.411 293.311 488.202 292.333 487.798 291.706C487.38 291.08 486.559 290.767 485.32 290.767H484.433V289.998H488.411C489.493 289.998 490.328 290.128 490.902 290.389C491.476 290.65 491.893 291.028 492.154 291.55H492.376C492.989 291.015 493.797 290.559 494.789 290.18C495.78 289.802 496.888 289.62 498.127 289.62C500.332 289.62 502.145 290.128 503.54 291.159C504.936 292.189 505.64 293.989 505.64 296.558V308.127H501.662V296.558C501.662 294.758 501.193 293.441 500.266 292.606C499.34 291.772 498.18 291.354 496.797 291.354C495.232 291.354 493.758 292.033 492.376 293.402V308.127H488.398V294.628L488.411 294.615Z" fill="#7BD7D6"></path><path d="M488.411 294.615C488.411 293.311 488.202 292.333 487.798 291.706C487.38 291.08 486.559 290.767 485.32 290.767H484.433V289.998H488.411C489.493 289.998 490.328 290.128 490.902 290.389C491.476 290.65 491.893 291.028 492.154 291.55H492.376C492.989 291.015 493.797 290.559 494.789 290.18C495.78 289.802 496.888 289.62 498.127 289.62C500.332 289.62 502.145 290.128 503.54 291.159C504.936 292.189 505.64 293.989 505.64 296.558V308.127H501.662V296.558C501.662 294.758 501.193 293.441 500.266 292.606C499.34 291.772 498.18 291.354 496.797 291.354C495.232 291.354 493.758 292.033 492.376 293.402V308.127H488.398V294.628L488.411 294.615Z" fill="black" fill-opacity="0.16"></path><path d="M510.544 307.971C509.566 307.618 508.744 307.058 508.053 306.249C507.362 305.453 507.01 304.397 507.01 303.093C507.01 301.136 508.053 299.754 510.127 298.932C512.201 298.11 514.914 297.693 518.279 297.693H519.609C519.609 295.176 519.218 293.454 518.422 292.528C517.627 291.602 516.479 291.145 514.979 291.145C513.648 291.145 512.592 291.393 511.796 291.876C511.001 292.358 510.44 293.206 510.114 294.419H508.131C508.131 293.545 508.184 292.854 508.301 292.358C508.418 291.863 508.731 291.393 509.227 290.95C509.762 290.493 510.636 290.141 511.849 289.933C513.075 289.711 514.405 289.606 515.853 289.606C518.24 289.606 520.118 290.167 521.5 291.289C522.883 292.411 523.574 294.55 523.574 297.706V308.114H521.37L519.818 306.379H519.596C519.061 306.966 518.292 307.475 517.261 307.879C516.231 308.297 514.953 308.492 513.414 308.492C512.475 308.492 511.509 308.323 510.544 307.971ZM517.835 306.145C518.487 305.727 519.074 305.166 519.596 304.449V299.245H518.266C516.087 299.245 514.366 299.597 513.101 300.301C511.836 301.006 511.196 301.945 511.196 303.093C511.196 304.24 511.601 305.179 512.409 305.806C513.218 306.432 514.209 306.745 515.396 306.745C516.374 306.745 517.183 306.536 517.822 306.132L517.835 306.145Z" fill="#7BD7D6"></path><path d="M510.544 307.971C509.566 307.618 508.744 307.058 508.053 306.249C507.362 305.453 507.01 304.397 507.01 303.093C507.01 301.136 508.053 299.754 510.127 298.932C512.201 298.11 514.914 297.693 518.279 297.693H519.609C519.609 295.176 519.218 293.454 518.422 292.528C517.627 291.602 516.479 291.145 514.979 291.145C513.648 291.145 512.592 291.393 511.796 291.876C511.001 292.358 510.44 293.206 510.114 294.419H508.131C508.131 293.545 508.184 292.854 508.301 292.358C508.418 291.863 508.731 291.393 509.227 290.95C509.762 290.493 510.636 290.141 511.849 289.933C513.075 289.711 514.405 289.606 515.853 289.606C518.24 289.606 520.118 290.167 521.5 291.289C522.883 292.411 523.574 294.55 523.574 297.706V308.114H521.37L519.818 306.379H519.596C519.061 306.966 518.292 307.475 517.261 307.879C516.231 308.297 514.953 308.492 513.414 308.492C512.475 308.492 511.509 308.323 510.544 307.971ZM517.835 306.145C518.487 305.727 519.074 305.166 519.596 304.449V299.245H518.266C516.087 299.245 514.366 299.597 513.101 300.301C511.836 301.006 511.196 301.945 511.196 303.093C511.196 304.24 511.601 305.179 512.409 305.806C513.218 306.432 514.209 306.745 515.396 306.745C516.374 306.745 517.183 306.536 517.822 306.132L517.835 306.145Z" fill="black" fill-opacity="0.16"></path></g><defs><clipPath id="clip0_132_297"><rect width="529" height="315.543" fill="white" transform="translate(0 0.280762)"></rect></clipPath></defs></svg>